<svg width="64" height="64" viewBox="0 0 64 64" fill="none" xmlns="http://www.w3.org/2000/svg">
  <defs>
    <linearGradient id="bg" x1="10" y1="8" x2="54" y2="58" gradientUnits="userSpaceOnUse">
      <stop stop-color="#1E1B4B"/>
      <stop offset="0.55" stop-color="#0F172A"/>
      <stop offset="1" stop-color="#312E81"/>
    </linearGradient>
    <linearGradient id="card" x1="18" y1="14" x2="46" y2="48" gradientUnits="userSpaceOnUse">
      <stop stop-color="#1C2541"/>
      <stop offset="1" stop-color="#0B1120"/>
    </linearGradient>
    <linearGradient id="gold" x1="16" y1="12" x2="49" y2="50" gradientUnits="userSpaceOnUse">
      <stop stop-color="#FDE68A"/>
      <stop offset="0.5" stop-color="#FBBF24"/>
      <stop offset="1" stop-color="#F59E0B"/>
    </linearGradient>
    <filter id="glow" x="0" y="0" width="64" height="64" filterUnits="userSpaceOnUse" color-interpolation-filters="sRGB">
      <feGaussianBlur stdDeviation="1.2"/>
    </filter>
  </defs>

  <rect x="4" y="4" width="56" height="56" rx="18" fill="url(#bg)"/>
  <rect x="4.75" y="4.75" width="54.5" height="54.5" rx="17.25" stroke="#F8E7A4" stroke-opacity="0.22" stroke-width="1.5"/>

  <circle cx="32" cy="32" r="21" stroke="url(#gold)" stroke-opacity="0.65" stroke-width="1.6"/>
  <circle cx="32" cy="32" r="24.5" stroke="#C4B5FD" stroke-opacity="0.18" stroke-width="1"/>

  <g filter="url(#glow)" opacity="0.45">
    <circle cx="18" cy="18" r="1.8" fill="#FDE68A"/>
    <circle cx="48" cy="20" r="1.6" fill="#C4B5FD"/>
    <circle cx="16" cy="45" r="1.4" fill="#C4B5FD"/>
    <circle cx="49" cy="45" r="1.8" fill="#FDE68A"/>
  </g>

  <g transform="rotate(-11 32 32)">
    <rect x="21" y="15" width="22" height="34" rx="5" fill="url(#card)"/>
    <rect x="21.9" y="15.9" width="20.2" height="32.2" rx="4.1" stroke="url(#gold)" stroke-opacity="0.8" stroke-width="1.2"/>
    <path d="M33.5 23.5C30.3 23.5 27.7 26.1 27.7 29.3C27.7 32.5 30.3 35.1 33.5 35.1C35.2 35.1 36.8 34.4 37.9 33.2C36.9 33.6 35.8 33.8 34.7 33.8C31.5 33.8 28.9 31.2 28.9 28C28.9 26.5 29.5 25.2 30.4 24.2C29.5 23.8 28.5 23.5 27.5 23.5H33.5Z" fill="url(#gold)"/>
    <path d="M34.8 37.8L35.8 40.2L38.3 41.2L35.8 42.1L34.8 44.5L33.8 42.1L31.4 41.2L33.8 40.2L34.8 37.8Z" fill="#FDE68A"/>
    <path d="M29.4 20.3L30 21.7L31.5 22.3L30 22.9L29.4 24.3L28.8 22.9L27.4 22.3L28.8 21.7L29.4 20.3Z" fill="#C4B5FD"/>
    <path d="M26.3 40.6H38.1" stroke="#FDE68A" stroke-opacity="0.5" stroke-width="1" stroke-linecap="round"/>
  </g>

  <path d="M13.5 29.5C16.8 26.6 20.8 24.9 25.1 24.7" stroke="#C4B5FD" stroke-opacity="0.45" stroke-width="1" stroke-linecap="round"/>
  <path d="M39.1 39.3C42.4 39.1 45.6 37.9 48.2 35.8" stroke="#FDE68A" stroke-opacity="0.5" stroke-width="1" stroke-linecap="round"/>
</svg>
